<?xml version="1.0" encoding="UTF-8" standalone="no"?>
<svg
   xml:space="preserve"
   width="64"
   height="64"
   viewBox="0 0 64 64"
   version="1.1"
   id="svg327"
   sodipodi:docname="isotipo.svg"
   inkscape:version="1.2.2 (b0a8486541, 2022-12-01)"
   xmlns:inkscape="http://www.inkscape.org/namespaces/inkscape"
   xmlns:sodipodi="http://sodipodi.sourceforge.net/DTD/sodipodi-0.dtd"
   xmlns="http://www.w3.org/2000/svg"
   xmlns:svg="http://www.w3.org/2000/svg"><defs
     id="defs331" /><sodipodi:namedview
     id="namedview329"
     pagecolor="#505050"
     bordercolor="#eeeeee"
     borderopacity="1"
     inkscape:showpageshadow="0"
     inkscape:pageopacity="0"
     inkscape:pagecheckerboard="0"
     inkscape:deskcolor="#505050"
     showgrid="false"
     inkscape:zoom="21.255931"
     inkscape:cx="-3.7401325"
     inkscape:cy="27.733435"
     inkscape:window-width="3840"
     inkscape:window-height="2075"
     inkscape:window-x="0"
     inkscape:window-y="0"
     inkscape:window-maximized="1"
     inkscape:current-layer="svg327" /><path
     d="M50.2 64H13.8C6.2 64 0 57.8 0 50.2V13.8C0 6.2 6.2 0 13.8 0h36.3C57.8 0 64 6.2 64 13.8v36.3C64 57.8 57.8 64 50.2 64Z"
     style="fill:#00009b;fill-opacity:1"
     id="path317" /><path
     d="m 322.05892,40.655115 c 1.4,-1.9 2.1,-4.3 1.8,-6.7 -0.3,-2.4 -1.6,-4.5 -3.5,-6 -1.9,-1.5 -4.3,-2.1 -6.7,-1.7 -4.9,0.7 -8.4,5.3 -7.7,10.2 0.6,4.5 4.5,7.8 8.9,7.8 0.4,0 0.8,0 1.2,-0.1 1.1,-0.2 2.1,-0.5 3.1,-1 0.4,-0.2 0.8,-0.5 1.1,-0.7 l 4.9,4.9 c 0.2,0.2 0.5,0.4 0.9,0.4 0.3,0 0.6,-0.1 0.9,-0.4 0.5,-0.5 0.5,-1.2 0,-1.7 z m -4,0.3 c -0.7,0.4 -1.4,0.6 -2.2,0.7 -3.6,0.5 -6.9,-2 -7.4,-5.6 -0.5,-3.6 2,-6.9 5.6,-7.4 0.3,0 0.6,-0.1 0.9,-0.1 1.4,0 2.8,0.5 4,1.3 1.4,1.1 2.3,2.6 2.6,4.4 0.2,2.7 -1.1,5.4 -3.5,6.7 z"
     style="opacity:0.6;fill:#ffffff"
     id="path319" /><path
     fill="#ffffff"
     d="m 314.45892,32.255115 c -1.6,0.2 -2.7,1.7 -2.5,3.3 0.2,1.6 1.7,2.7 3.3,2.5 1.6,-0.2 2.7,-1.7 2.5,-3.3 -0.2,-1.6 -1.7,-2.7 -3.3,-2.5 z"
     id="path321" /><path
     fill="#ffffff"
     d="m 340.65892,33.555115 c -0.1,-0.7 -0.8,-1.1 -1.5,-1 -1.6,0.3 -4.3,0.8 -5.5,1.1 -0.2,0 -0.4,-0.1 -0.5,-0.3 -1.3,-3.9 -7.4,-13.6 -21.1,-11.6 -11.5,1.8 -18,14.9 -19.5,18.3 -0.2,0.4 0.1,0.8 0.5,0.8 l 1.7,-0.1 c 1.2,0 3.4,-0.2 7.4,0.7 1.7,0.3 2.1,-0.2 2.3,-0.9 0.1,-1.3 -0.8,-1.4 -2.1,-1.6 -2.2,-0.4 -4.4,-0.5 -5.5,-0.6 -0.3,0 -0.5,-0.3 -0.3,-0.6 2.3,-4.3 8.5,-12.6 15.8,-13.6 12.5,-2.1 17.7,8.1 18.4,10.3 0.1,0.2 0,0.5 -0.2,0.6 -0.9,0.6 -2.7,2 -3.7,2.7 -0.7,0.5 -1.6,1.4 -0.7,2.3 0.9,1 2,-0.1 2.5,-0.5 1.1,-0.8 1.3,-0.9 2.2,-1.6 1.3,-1 2.2,-1.4 3.2,-1.7 1.3,-0.2 3.9,-0.8 5.5,-1.1 0.8,-0.3 1.2,-0.9 1.1,-1.6 z"
     id="path323" /><path
     fill="#ffffff"
     d="m 294.95892,22.755115 c 0.4,0 0.7,-0.1 1,-0.4 0.1,-0.1 7.5,-8.1 18.6,-8.1 13.8,0 19.1,6.4 19.2,6.4 0.5,0.6 1.3,0.7 1.9,0.2 0.6,-0.5 0.7,-1.3 0.2,-1.9 -0.2,-0.3 -6,-7.5 -21.3,-7.5 -12.3,0 -20.3,8.7 -20.6,9 -0.5,0.6 -0.5,1.5 0.1,2 0.3,0.2 0.6,0.3 0.9,0.3 z"
     id="path325" /><g
     id="g1585"
     transform="matrix(-0.60674937,0.09002468,-0.09020886,-0.60551071,122.31157,139.70636)"
     style="fill:none;stroke-width:1.63187459;stroke-dasharray:none"><rect
       style="font-variation-settings:normal;fill:none;fill-opacity:0.752941;stroke:#4148d1;stroke-width:1.63187459;stroke-linecap:round;stroke-linejoin:round;stroke-miterlimit:10;stroke-dasharray:none;stroke-dashoffset:0;stroke-opacity:1;stop-color:#000000"
       id="rect1575"
       width="0.435"
       height="4.7350011"
       x="85.236473"
       y="-202.4375"
       transform="rotate(125.33875)" /><g
       id="g1581"
       transform="matrix(-0.89193587,-0.27170163,-0.45216192,0.5359594,330.00001,195.47977)"
       style="fill:none;stroke-width:2.10517231;stroke-dasharray:none"><path
         style="font-variation-settings:normal;fill:none;fill-opacity:0.752941;stroke:#668eff;stroke-width:2.10517231;stroke-linecap:round;stroke-linejoin:round;stroke-miterlimit:10;stroke-dasharray:none;stroke-dashoffset:0;stroke-opacity:1;stop-color:#000000"
         d="m 196.21271,82.018846 3.41102,3.945342"
         id="path1577" /><path
         style="font-variation-settings:normal;fill:none;fill-opacity:0.752941;stroke:#668eff;stroke-width:2.10517231;stroke-linecap:round;stroke-linejoin:round;stroke-miterlimit:10;stroke-dasharray:none;stroke-dashoffset:0;stroke-opacity:1;stop-color:#000000"
         d="M 195.45143,85.691716 200.69037,81.6209"
         id="path1579"
         sodipodi:nodetypes="cc" /></g><rect
       style="font-variation-settings:normal;opacity:1;fill:none;fill-opacity:0.752941;stroke:#4148d1;stroke-width:1.63187459;stroke-linecap:round;stroke-linejoin:round;stroke-miterlimit:10;stroke-dasharray:none;stroke-dashoffset:0;stroke-opacity:1;stop-color:#000000;stop-opacity:1"
       id="rect1583"
       width="1.1350007"
       height="1.1350007"
       x="-12.420141"
       y="214.4165"
       transform="matrix(-0.88204504,0.47116509,0.47116509,0.88204504,0,0)" /></g><g
     id="g1589"
     transform="matrix(0.61340191,-0.00452583,0.00453509,0.61214964,-26.290535,-87.996709)"
     style="fill:none;stroke-width:1.63187455;stroke-dasharray:none"><path
       id="path881"
       style="fill:none;fill-opacity:0.752941;stroke:#4148d1;stroke-width:1.63187455;stroke-linecap:round;stroke-linejoin:round;stroke-miterlimit:10;stroke-opacity:1;stroke-dasharray:none"
       d="m 103.30328,205.97162 3.93116,3.06111 -0.1608,1.69299 -4.16538,3.73128 -3.104338,-0.18355 -1.15708,-2.11836 0.22359,-2.50123 z"
       sodipodi:nodetypes="cccccccc" /><rect
       style="font-variation-settings:normal;opacity:1;fill:none;fill-opacity:0.752941;stroke:#4148d1;stroke-width:1.63187455;stroke-linecap:round;stroke-linejoin:round;stroke-miterlimit:10;stroke-dasharray:none;stroke-dashoffset:0;stroke-opacity:1;stop-color:#000000;stop-opacity:1"
       id="rect825"
       width="1.1350007"
       height="1.1350007"
       x="94.659248"
       y="212.01381"
       transform="matrix(-0.63998598,0.76838659,0.76838659,0.63998598,0,0)" /></g><g
     id="g896"
     transform="matrix(0.58984687,-0.1680697,0.16841352,0.58864268,-56.73557,-49.63673)"
     inkscape:transform-center-x="0.64003481"
     inkscape:transform-center-y="0.58421755"
     style="fill:none;stroke-width:1.63187462;stroke-dasharray:none"><rect
       style="font-variation-settings:normal;fill:none;fill-opacity:0.752941;stroke:#4148d1;stroke-width:1.63187462;stroke-linecap:round;stroke-linejoin:round;stroke-miterlimit:10;stroke-dasharray:none;stroke-dashoffset:0;stroke-opacity:1;stop-color:#000000"
       id="rect809"
       width="0.435"
       height="4.7350011"
       x="85.236473"
       y="-202.4375"
       transform="rotate(125.33875)" /><g
       id="g817"
       transform="matrix(-0.89193587,-0.27170163,-0.45216192,0.5359594,330.00001,195.47977)"
       style="fill:none;stroke-width:2.10517235;stroke-dasharray:none"><path
         style="font-variation-settings:normal;fill:none;fill-opacity:0.752941;stroke:#668eff;stroke-width:2.10517235;stroke-linecap:round;stroke-linejoin:round;stroke-miterlimit:10;stroke-dasharray:none;stroke-dashoffset:0;stroke-opacity:1;stop-color:#000000"
         d="m 196.21271,82.018846 3.41102,3.945342"
         id="path813" /><path
         style="font-variation-settings:normal;fill:none;fill-opacity:0.752941;stroke:#668eff;stroke-width:2.10517235;stroke-linecap:round;stroke-linejoin:round;stroke-miterlimit:10;stroke-dasharray:none;stroke-dashoffset:0;stroke-opacity:1;stop-color:#000000"
         d="m 195.40933,85.710955 5.35346,-4.279056"
         id="path815"
         sodipodi:nodetypes="cc" /></g><rect
       style="font-variation-settings:normal;opacity:1;fill:none;fill-opacity:0.752941;stroke:#4148d1;stroke-width:1.63187462;stroke-linecap:round;stroke-linejoin:round;stroke-miterlimit:10;stroke-dasharray:none;stroke-dashoffset:0;stroke-opacity:1;stop-color:#000000;stop-opacity:1"
       id="rect889"
       width="1.1350007"
       height="1.1350007"
       x="-12.420141"
       y="214.4165"
       transform="matrix(-0.88204504,0.47116509,0.47116509,0.88204504,0,0)" /></g><path
     style="fill:none;fill-opacity:1;stroke:#fefefe;stroke-width:1px;stroke-linecap:butt;stroke-linejoin:miter;stroke-opacity:1"
     d="m 29.031995,13.740376 -3.31474,2.487746 -1.81175,-2.913924 1.641,-1.684945 6.17529,0.473406 z"
     id="path1893"
     sodipodi:nodetypes="cccccc" /><path
     style="fill:none;stroke:#b0b0b0;stroke-width:1.13386;stroke-linecap:butt;stroke-linejoin:miter;stroke-miterlimit:4;stroke-dasharray:none;stroke-opacity:0.83778691"
     d="m 5.1530649,53.259435 c 0,0 -3.87446,-5.479736 -1.31495,-12.365265 2.55954,-6.885511 19.6177401,-25.937371 33.0115601,-31.6374664 13.39382,-5.700096 19.02563,-1.493643 19.02563,-1.493643"
     id="path4859"
     sodipodi:nodetypes="czzc" /><path
     style="fill:none;stroke:#b0b0b0;stroke-width:1.88976;stroke-linecap:butt;stroke-linejoin:miter;stroke-miterlimit:4;stroke-dasharray:none;stroke-opacity:0.46000001"
     d="m 56.028705,7.9691946 c 0,0 2.25888,6.0910194 -1.35714,12.8252104 -3.616,6.734197 -9.60082,13.33179 -24.47916,24.712478 C 15.314065,56.88757 5.2603249,53.259435 5.2603249,53.259435"
     id="path3654-7"
     sodipodi:nodetypes="czzc" /><ellipse
     style="fill:none;fill-opacity:0.608816;stroke:#ffffff;stroke-width:1.00159;stroke-linecap:round;stroke-linejoin:round;stroke-miterlimit:10;stroke-dasharray:none;stroke-dashoffset:0;stroke-opacity:1"
     id="ellipse2729-6"
     cx="3.8164535"
     cy="43.773956"
     rx="34.124886"
     ry="16.98465"
     transform="matrix(0.77012294,-0.63789549,0.64606659,0.76328105,0,0)" /><path
     style="fill:none;stroke:#b0b0b0;stroke-width:1.13386;stroke-linecap:butt;stroke-linejoin:miter;stroke-miterlimit:4;stroke-dasharray:none;stroke-opacity:0.83778691"
     d="m 5.1530649,53.259435 c 0,0 -2.51768,-3.935815 0.0418,-10.821336 2.55953,-6.885514 25.8807801,-28.068747 37.3549301,-33.1331504 11.47416,-5.064392 13.5468,-1.14166 13.5468,-1.14166"
     id="path4556-5"
     sodipodi:nodetypes="czzc" /><path
     style="fill:none;stroke:#b0b0b0;stroke-width:1.13386;stroke-linecap:butt;stroke-linejoin:miter;stroke-miterlimit:4;stroke-dasharray:none;stroke-opacity:1"
     d="m 49.312985,31.057687 c 0,0 -1.63086,-5.106404 -4.21013,-8.00754 -2.28923,-2.574901 -7.98114,-6.476757 -14.62864,-8.989223 -2.94428,-1.112814 -6.80607,1.343369 -6.80607,1.343369"
     id="path4558-3"
     sodipodi:nodetypes="cssc" /><path
     style="fill:none;fill-opacity:1;stroke:#fefefe;stroke-width:1px;stroke-linecap:butt;stroke-linejoin:miter;stroke-opacity:1"
     d="m 54.311145,24.285211 -2.25724,3.320176 9.61066,-1.05603 1.57526,-2.257535 -7.36094,-3.52115 z"
     id="path7756-6"
     sodipodi:nodetypes="cccccc" /><path
     style="fill:none;fill-opacity:1;stroke:#fefefe;stroke-width:1px;stroke-linecap:butt;stroke-linejoin:miter;stroke-opacity:1"
     d="m 39.099505,10.890288 -2.94562,2.151875 1.30568,-9.4003604 2.19941,-2.171764 3.76811,7.556784 z"
     id="path8488-0"
     sodipodi:nodetypes="cccccc" /><path
     style="fill:none;stroke:#b0b0b0;stroke-width:1.88976;stroke-linecap:butt;stroke-linejoin:miter;stroke-miterlimit:4;stroke-dasharray:none;stroke-opacity:0.837787"
     d="m 24.172179,15.546826 c -4.98676,5.773151 -2.122104,11.507311 1.960846,15.806286 4.08295,4.298969 5.20494,7.070146 14.66021,9.070854 9.45527,2.000701 8.43774,-9.360611 8.43774,-9.360611"
     id="path4820"
     sodipodi:nodetypes="czzc" /><path
     style="fill:none;stroke:#b1b1b1;stroke-width:1.13386;stroke-linecap:butt;stroke-linejoin:miter;stroke-miterlimit:4;stroke-dasharray:none;stroke-opacity:1"
     d="m 56.166785,7.9604046 c 0,0 1.90472,7.1413984 -0.6548,14.0269234 -2.55953,6.885512 -17.26386,21.443532 -28.73801,26.507933 -11.47415,5.064393 -21.7770601,4.516812 -21.7770601,4.516812"
     id="path4822"
     sodipodi:nodetypes="czzc" /><path
     style="fill:none;fill-opacity:0.752981;stroke:#fefefe;stroke-width:1px;stroke-linecap:butt;stroke-linejoin:miter;stroke-opacity:1"
     d="m 2.7925749,46.831468 -0.73167,8.328646 8.3487801,0.693997 c 0.0876,-3.574099 -3.7330501,-8.615172 -7.6171101,-9.022643 z"
     id="path4990-6"
     sodipodi:nodetypes="cccc" /><rect
     style="font-variation-settings:normal;vector-effect:none;fill:none;fill-opacity:0.752941;stroke:#4148d1;stroke-width:1.00158;stroke-linecap:round;stroke-linejoin:round;stroke-miterlimit:10;stroke-dasharray:none;stroke-dashoffset:0;stroke-opacity:1;-inkscape-stroke:none;stop-color:#000000"
     id="rect823"
     width="0.69539171"
     height="0.69564885"
     x="-9.8509102"
     y="34.593513"
     transform="matrix(-0.64075801,0.7677429,0.76902923,0.63921361,0,0)" /></svg>
